{
  "accessors": [
    {
      "bufferView": 2,
      "componentType": 5126,
      "count": 65532,
      "max": [
        6.078114986419678,
        3.829103946685791,
        4.2171478271484375
      ],
      "min": [
        0.0,
        0.0,
        0.0
      ],
      "type": "VEC3"
    },
    {
      "bufferView": 2,
      "byteOffset": 786384,
      "componentType": 5126,
      "count": 65532,
      "max": [
        0.9999022483825684,
        0.9999745488166809,
        0.9999867677688599
      ],
      "min": [
        -0.9999276399612427,
        -0.9999768733978271,
        -0.9999735355377197
      ],
      "type": "VEC3"
    },
    {
      "bufferView": 1,
      "componentType": 5126,
      "count": 65532,
      "max": [
        0.9980800151824951,
        0.9994670152664185
      ],
      "min": [
        0.0010389999952167273,
        0.0035170000046491623
      ],
      "type": "VEC2"
    },
    {
      "bufferView": 0,
      "componentType": 5125,
      "count": 323040,
      "type": "SCALAR"
    },
    {
      "bufferView": 2,
      "byteOffset": 1572768,
      "componentType": 5126,
      "count": 65533,
      "max": [
        4.889790058135986,
        3.8000097274780273,
        2.829674005508423
      ],
      "min": [
        1.1704598665237427,
        1.490189552307129,
        0.09411096572875977
      ],
      "type": "VEC3"
    },
    {
      "bufferView": 2,
      "byteOffset": 2359164,
      "componentType": 5126,
      "count": 65533,
      "max": [
        0.9999579787254333,
        0.999941349029541,
        0.9999163746833801
      ],
      "min": [
        -0.9999842643737793,
        -0.9999826550483704,
        -0.9999890923500061
      ],
      "type": "VEC3"
    },
    {
      "bufferView": 1,
      "byteOffset": 524256,
      "componentType": 5126,
      "count": 65533,
      "max": [
        0.9963319897651672,
        0.9996449947357178
      ],
      "min": [
        0.00016399999731220305,
        0.010165000334382057
      ],
      "type": "VEC2"
    },
    {
      "bufferView": 0,
      "byteOffset": 1292160,
      "componentType": 5125,
      "count": 321402,
      "type": "SCALAR"
    },
    {
      "bufferView": 2,
      "byteOffset": 3145560,
      "componentType": 5126,
      "count": 23552,
      "max": [
        4.794158935546875,
        3.6996169090270996,
        2.8970839977264404
      ],
      "min": [
        1.1712839603424072,
        1.4318976402282715,
        0.43355894088745117
      ],
      "type": "VEC3"
    },
    {
      "bufferView": 2,
      "byteOffset": 3428184,
      "componentType": 5126,
      "count": 23552,
      "max": [
        0.9999022483825684,
        0.9999665021896362,
        0.9999516606330872
      ],
      "min": [
        -0.9999547600746155,
        -0.9999826550483704,
        -0.9999735355377197
      ],
      "type": "VEC3"
    },
    {
      "bufferView": 1,
      "byteOffset": 1048520,
      "componentType": 5126,
      "count": 23552,
      "max": [
        0.9982439875602722,
        0.999921977519989
      ],
      "min": [
        0.0010550000006332994,
        0.0694969967007637
      ],
      "type": "VEC2"
    },
    {
      "bufferView": 0,
      "byteOffset": 2577768,
      "componentType": 5125,
      "count": 83814,
      "type": "SCALAR"
    }
  ],
  "asset": {
    "extras": {
      "author": "The Cuming Museum (https://sketchfab.com/cumingmuseum)",
      "license": "CC-BY-4.0 (http://creativecommons.org/licenses/by/4.0/)",
      "source": "https://sketchfab.com/3d-models/tiger-skull-f42a1a7ad69241ad81d29dbef11f842a",
      "title": "Tiger Skull"
    },
    "generator": "Sketchfab-12.67.0",
    "version": "2.0"
  },
  "bufferViews": [
    {
      "buffer": 0,
      "byteLength": 2913024,
      "name": "floatBufferViews",
      "target": 34963
    },
    {
      "buffer": 0,
      "byteLength": 1236936,
      "byteOffset": 2913024,
      "byteStride": 8,
      "name": "floatBufferViews",
      "target": 34962
    },
    {
      "buffer": 0,
      "byteLength": 3710808,
      "byteOffset": 4149960,
      "byteStride": 12,
      "name": "floatBufferViews",
      "target": 34962
    }
  ],
  "buffers": [
    {
      "byteLength": 7860768,
      "uri": "scene.bin"
    }
  ],
  "images": [
    {
      "uri": "textures/material_0_baseColor.jpeg"
    },
    {
      "uri": "textures/material_0_metallicRoughness.png"
    }
  ],
  "materials": [
    {
      "doubleSided": true,
      "name": "material_0",
      "occlusionTexture": {
        "index": 1,
        "strength": 0.48
      },
      "pbrMetallicRoughness": {
        "baseColorTexture": {
          "index": 0
        },
        "metallicFactor": 0.45,
        "metallicRoughnessTexture": {
          "index": 1
        },
        "roughnessFactor": 0.6
      }
    }
  ],
  "meshes": [
    {
      "name": "Object_0",
      "primitives": [
        {
          "attributes": {
            "NORMAL": 1,
            "POSITION": 0,
            "TEXCOORD_0": 2
          },
          "indices": 3,
          "material": 0,
          "mode": 4
        }
      ]
    },
    {
      "name": "Object_1",
      "primitives": [
        {
          "attributes": {
            "NORMAL": 5,
            "POSITION": 4,
            "TEXCOORD_0": 6
          },
          "indices": 7,
          "material": 0,
          "mode": 4
        }
      ]
    },
    {
      "name": "Object_2",
      "primitives": [
        {
          "attributes": {
            "NORMAL": 9,
            "POSITION": 8,
            "TEXCOORD_0": 10
          },
          "indices": 11,
          "material": 0,
          "mode": 4
        }
      ]
    }
  ],
  "nodes": [
    {
      "children": [
        1
      ],
      "matrix": [
        -0.5618546009063721,
        -0.5137773752212526,
        0.6483457684516906,
        0.0,
        -0.5360645055770874,
        0.8230520486831665,
        0.1876702606678011,
        0.0,
        -0.6300430297851563,
        -0.2421117573976515,
        -0.7378534078598022,
        0.0,
        -3.4797000885009766,
        5.239312648773192,
        7.609660148620606,
        1.0
      ],
      "name": "Sketchfab_model"
    },
    {
      "children": [
        2,
        3,
        4
      ],
      "matrix": [
        1.0,
        0.0,
        0.0,
        0.0,
        0.0,
        1.0,
        0.0,
        0.0,
        0.0,
        0.0,
        1.0,
        0.0,
        -3.168623924255371,
        -8.173999786376953,
        -1.9845659732818604,
        1.0
      ],
      "name": "tiger-edit.obj.cleaner.gles"
    },
    {
      "mesh": 0,
      "name": "Object_2"
    },
    {
      "mesh": 1,
      "name": "Object_3"
    },
    {
      "mesh": 2,
      "name": "Object_4"
    }
  ],
  "samplers": [
    {
      "magFilter": 9729,
      "minFilter": 9987,
      "wrapS": 10497,
      "wrapT": 10497
    }
  ],
  "scene": 0,
  "scenes": [
    {
      "name": "Sketchfab_Scene",
      "nodes": [
        0
      ]
    }
  ],
  "textures": [
    {
      "sampler": 0,
      "source": 0
    },
    {
      "sampler": 0,
      "source": 1
    }
  ]
}
